<svg xmlns="http://www.w3.org/2000/svg" xmlns:xlink="http://www.w3.org/1999/xlink" viewBox="0 0 140.97 258.22"><defs><style>.cls-1{fill:none;}.cls-2{clip-path:url(#clip-path);}.cls-3{clip-path:url(#clip-path-2);}.cls-4{clip-path:url(#clip-path-3);}.cls-5{clip-path:url(#clip-path-4);}.cls-6{clip-path:url(#clip-path-5);}.cls-7{clip-path:url(#clip-path-6);}.cls-8{clip-path:url(#clip-path-7);}.cls-9{clip-path:url(#clip-path-8);}.cls-10{clip-path:url(#clip-path-9);}.cls-11{clip-path:url(#clip-path-10);}.cls-12{clip-path:url(#clip-path-11);}</style><clipPath id="clip-path" transform="translate(-87.22)"><polygon id="SVGID" class="cls-1" points="251.16 151.19 87.75 0.97 180.76 44.86 251.16 151.19"/></clipPath><clipPath id="clip-path-2" transform="translate(-87.22)"><path id="SVGID-2" data-name="SVGID" class="cls-1" d="M282,263.24c-1.7-5.06-9.39-6.05-9.39-6.05-19.52-2.55-47.7,1.45-47.7,1.45A120.17,120.17,0,0,0,182,271L107.75,159.49h0L87.75,1,212.53,229.54l38.63-78.35L221,41.89l42.2,60.86Z"/></clipPath><clipPath id="clip-path-3" transform="translate(-87.22)"><polygon id="SVGID-3" data-name="SVGID" class="cls-1" points="251.16 151.19 180.76 44.85 216.94 36.08 220.96 41.88 251.16 151.19"/></clipPath><clipPath id="clip-path-4" transform="translate(-87.22)"><polygon id="SVGID-4" data-name="SVGID" class="cls-1" points="327.01 131.78 282.03 263.24 263.16 102.75 327.01 131.78"/></clipPath><clipPath id="clip-path-5" transform="translate(-87.22)"><polygon id="SVGID-5" data-name="SVGID" class="cls-1" points="474.49 261.64 345.83 202.9 327.01 131.79 474.49 261.64"/></clipPath><clipPath id="clip-path-6" transform="translate(-87.22)"><path id="SVGID-6" data-name="SVGID" class="cls-1" d="M107.75,159.48h0L.21,339h0L87.75,1Z"/></clipPath><clipPath id="clip-path-7" transform="translate(-87.22)"><polygon id="SVGID-7" data-name="SVGID" class="cls-1" points="251.16 151.19 212.53 229.53 87.75 0.96 251.16 151.19"/></clipPath><clipPath id="clip-path-8" transform="translate(-87.22)"><polygon id="SVGID-8" data-name="SVGID" class="cls-1" points="345.83 202.9 282.03 263.24 327.01 131.79 345.83 202.9"/></clipPath><clipPath id="clip-path-9" transform="translate(-87.22)"><path id="SVGID-9" data-name="SVGID" class="cls-1" d="M488.05,289c-17.44-18.22-98-12.55-107.56-11.89s-81.44,4.34-89.33,4.45S282,263.24,282,263.24l63.8-60.34,128.66,58.74Z"/></clipPath><clipPath id="clip-path-10" transform="translate(-87.22)"><path id="SVGID-10" data-name="SVGID" class="cls-1" d="M182,271c-16,8.09-24.48,17-24.48,17-27.55,27.89-74.66,32.22-74.66,32.22C9.72,328.42.48,338.72.21,339L107.75,159.49Z"/></clipPath><clipPath id="clip-path-11" transform="translate(-87.22)"><path id="SVGID-11" data-name="SVGID" class="cls-1" d="M490.49,302.53c-2.44,5.22-2.55,7.89-20.88,19.44s-33,15.67-33,15.67S317.83,379.05,76.35,371.05c-15.67-.52-52.45-8.6-52.45-8.6C-3.8,360.08.2,339.05.2,339.05h0c.27-.32,9.51-10.62,82.62-18.85,0,0,47.11-4.33,74.66-32.22,0,0,8.46-8.93,24.48-17a120.17,120.17,0,0,1,43-12.31s28.18-4,47.7-1.45c0,0,7.69,1,9.39,6.05,0,0,1.24,18.4,9.13,18.29s79.78-3.78,89.33-4.45,90.12-6.33,107.56,11.89C488.05,289,492.94,297.3,490.49,302.53Z"/></clipPath></defs><g id="Слой_2" data-name="Слой 2"><g id="Слой_4" data-name="Слой 4"><polyline class="cls-1" points="0 0 0.53 0.97 20.09 158.82 20.53 159.48 125.31 229.54 140.97 258.22"/></g></g></svg>